<?xml version="1.0" encoding="utf-8"?>
<!-- Generator: Adobe Illustrator 16.0.0, SVG Export Plug-In . SVG Version: 6.00 Build 0)  -->
<!DOCTYPE svg PUBLIC "-//W3C//DTD SVG 1.1//EN" "http://www.w3.org/Graphics/SVG/1.1/DTD/svg11.dtd">
<svg version="1.1" xmlns="http://www.w3.org/2000/svg" xmlns:xlink="http://www.w3.org/1999/xlink" x="0px" y="0px"
	 width="368.379px" height="325.472px" viewBox="0 0 368.379 325.472" enable-background="new 0 0 368.379 325.472"
	 xml:space="preserve">
<g id="Layer_3">
	<polyline fill-rule="evenodd" clip-rule="evenodd" fill="#FFFF00" points="184.611,63.885 317.219,290.424 51.55,290.424 	"/>
</g>
<g id="Layer_1">
	<g>
		<path fill-rule="evenodd" clip-rule="evenodd" fill="none" d="M184.691,325.453c56.515,0,113.028,0.021,169.543-0.018
			c12.615-0.008,17.7-8.68,11.516-19.615c-8.793-15.551-17.68-31.047-26.582-46.533c-22.588-39.295-45.211-78.57-67.813-117.858
			c-25.126-43.677-50.221-87.371-75.381-131.028c-6.25-10.845-16.832-10.729-23.186,0.181c-6.957,11.944-13.871,23.91-20.756,35.896
			c-31.055,54.068-62.081,108.154-93.143,162.219C40,241.576,21.06,274.428,2.157,307.299c-3.359,5.842-2.933,11.377,2.251,14.789
			c3.131,2.061,7.45,3.227,11.24,3.238C71.996,325.525,128.344,325.465,184.691,325.453z"/>
		<path fill-rule="evenodd" clip-rule="evenodd" d="M172.789,10.582c6.354-10.91,16.936-11.026,23.186-0.181
			c25.16,43.657,50.255,87.351,75.381,131.028c22.602,39.288,45.225,78.563,67.813,117.858
			c8.902,15.486,17.789,30.982,26.582,46.533c6.185,10.936,1.1,19.607-11.516,19.615c-56.515,0.039-113.028,0.018-169.543,0.023
			c-56.348,0.006-112.695,0.066-169.043-0.133c-3.791-0.012-8.109-1.178-11.24-3.238c-5.184-3.412-5.61-8.947-2.251-14.789
			 M184.611,63.885c-44.676,76.061-88.669,150.96-133.061,226.539c89.115,0,176.825,0,265.668,0
			C272.938,214.773,229.164,139.995,184.611,63.885z"/>
		<path fill-rule="evenodd" clip-rule="evenodd" fill="none" d="M184.611,63.885c44.553,76.11,88.326,150.889,132.607,226.539
			c-88.844,0-176.554,0-265.668,0C95.942,214.845,139.936,139.946,184.611,63.885z"/>
		<path fill-rule="evenodd" clip-rule="evenodd" d="M231.94,248.367c10.651,0,18.454,0,28.334,0c2.999,0.108,3.573,5.78-0.501,5.725
			c-8.873-0.121-23.54-0.127-36.917-0.127c-1.809,0-3.616,0-6.047,0c0,9.439,0,18.281,0,27.205l-6.536-0.078
			c0,0-0.077-18.996-0.077-27.129c0,0-11.048-0.038-13.632-0.038c-4.041,0-4.041-5.601,0.042-5.601c7.792,0,14.889,0,22.556,0
			c-1.746-4.402-4.373-4.68-8.403-4.311c-7.663,0.705-15.436,0.205-23.916,0.205c0.707,3.904,1.577,6.934,1.747,10.004
			c0.446,8.031,0.744,16.082,0.671,24.123c-0.01,1.16-2.362,3.252-3.683,3.293c-9.094,0.293-18.207,0.305-27.3,0.008
			c-1.517-0.049-3.712-1.734-4.339-3.199c-6.502-15.195-9.353-30.947-5.781-47.365c1.506-6.92,3.983-13.841,11.789-15.641
			c7.779-1.792,13.201,3.499,16.47,9.326c3.96,7.061,9.411,8.545,16.689,9.068c9.473,0.682,19.164,1.09,27.748,6.447
			c1.86,1.162,4.176,4.591,6.586,5.142C232.161,246.505,229.44,246.05,231.94,248.367z"/>
		<path fill-rule="evenodd" clip-rule="evenodd" d="M165.395,211.314c-11.514,0.008-21.04-9.193-20.965-20.247
			c0.074-11.034,9.653-20.047,21.229-19.975c11.601,0.072,21.093,9.217,21.009,20.243
			C186.582,202.424,177.125,211.307,165.395,211.314z"/>
		<path fill-rule="evenodd" clip-rule="evenodd" d="M132.42,281.864c-6.455-25.546-9.63-52.101-10.204-78.516
			c-0.172-7.913,1.007-14.777,3.725-13.327c4.582,2.444,18.488,91.843,18.488,91.843"/>
		<path fill-rule="evenodd" clip-rule="evenodd" d="M237.877,241.073l-0.188-25.986c-2.55,6.1-6.517,16.579-9.211,23.026
			c-3.25-1.268-5.99-2.336-9.235-3.602c7.131-17.357,14.067-34.244,21.184-51.565c3.245,1.315,5.966,2.417,8.898,3.606
			c-0.386,1.38-6.484,16.747-6.484,16.747c0.124,14.821-0.089,37.774-0.089,37.774"/>
		<path fill-rule="evenodd" clip-rule="evenodd" d="M246.243,241.047c6.405,0.069,5.682,6.83,0.03,6.875c0,0-9.424,0-9.625,0
			c-5.155,0.003-5.25-7.081,0.25-7.081"/>
	</g>
</g>
</svg>
