<?xml version="1.0" encoding="utf-8"?>
<!-- Generator: Adobe Illustrator 16.0.0, SVG Export Plug-In . SVG Version: 6.00 Build 0)  -->
<!DOCTYPE svg PUBLIC "-//W3C//DTD SVG 1.1//EN" "http://www.w3.org/Graphics/SVG/1.1/DTD/svg11.dtd">
<svg version="1.1" xmlns="http://www.w3.org/2000/svg" xmlns:xlink="http://www.w3.org/1999/xlink" x="0px" y="0px"
	 width="580.852px" height="164px" viewBox="0 0 580.852 164" enable-background="new 0 0 580.852 164" xml:space="preserve">
<g id="Layer_3" display="none">
	<rect display="inline" width="841.89" height="595.28"/>
	
		<text transform="matrix(1.0151 0 0 1 14.7656 437.083)" display="inline" fill="#FFFFFF" font-family="'Lane-Narrow'" font-size="200.3552">Bream iO</text>
</g>
<g id="Layer_1">
	<g display="none">
		<g display="inline">
			<path d="M100.33,243.44c31.935-61.774,276.297-173.119,549.842-19.358c0,0,36.815-18.651,28.566-25.033
				C438.326,36.344,144.907,156.517,100.33,243.44z"/>
			<path d="M670.522,199.079C387.631,369.82,117.113,204.059,99.36,168.937c50.444,79.186,347.685,187.866,571.866,42.398"/>
		</g>
		
			<circle display="inline" fill="none" stroke="#000000" stroke-width="9.7573" stroke-miterlimit="10" cx="397.11" cy="194.594" r="64.406"/>
		
			<path display="inline" fill="none" stroke="#000000" stroke-width="6.7414" stroke-linecap="square" stroke-linejoin="round" stroke-miterlimit="10" d="
			M299.531,210.732c-2.16,41.689,6.175,60.095,54.186,65.085"/>
		<path display="inline" d="M303.649,187.593c-0.448,5.749-2.099,7.437-3.958,7.292c-1.861-0.146-3.232-2.068-2.785-7.817
			c0.464-5.968,2.099-7.436,3.961-7.29C302.726,179.922,304.11,181.66,303.649,187.593z"/>
	</g>
	<g display="none">
		<path display="inline" fill="none" stroke="#EF7D33" stroke-width="8.9369" stroke-miterlimit="10" d="M462,194.133
			c0.465,35.589-28.019,64.819-63.609,65.284c-35.593,0.461-64.82-28.019-65.284-63.61c-0.461-35.592,28.015-64.822,63.608-65.285
			C432.31,130.06,461.536,158.539,462,194.133z"/>
		<path display="inline" fill="none" stroke="#4AAFD8" stroke-width="7.1495" stroke-miterlimit="10" d="M299.904,211.119
			c-2.161,41.717,6.179,60.14,54.226,65.131"/>
		<path display="inline" fill="#4AAFD8" d="M671.162,199.458c-283.093,170.861-553.805,4.983-571.57-30.164
			c50.479,79.241,347.932,188,572.276,42.425"/>
		<path display="inline" fill="#347995" d="M100.563,243.851c31.956-61.817,276.493-173.242,550.233-19.371
			c0,0,36.842-18.667,28.589-25.052C438.799,36.606,145.17,156.865,100.563,243.851z"/>
		<path display="inline" fill="#4AAFD8" d="M304.027,187.963c-0.45,5.753-2.102,7.443-3.962,7.298
			c-1.862-0.145-3.234-2.07-2.786-7.822c0.464-5.973,2.1-7.442,3.962-7.296C303.102,180.288,304.488,182.026,304.027,187.963z"/>
	</g>
	<g>
		<path fill="none" stroke="#EF7D33" stroke-width="8.9347" stroke-miterlimit="10" d="M362.318,75.232
			c0.465,35.58-28.011,64.802-63.593,65.267c-35.585,0.461-64.804-28.012-65.268-63.593c-0.461-35.584,28.007-64.806,63.593-65.269
			C332.635,11.174,361.854,39.646,362.318,75.232z"/>
		<path fill="none" stroke="#4AAFD8" stroke-width="7.1477" stroke-miterlimit="10" d="M200.262,92.213
			c-2.16,41.706,6.178,60.124,54.212,65.115"/>
		<path fill="#4AAFD8" d="M0.97,124.937C32.918,63.135,277.394-48.262,551.066,105.57c0,0,36.832-18.662,28.58-25.045
			C339.123-82.255,45.567,37.973,0.97,124.937z"/>
		<path fill="#4AAFD8" d="M571.428,80.556C288.405,251.375,17.761,85.538,0,50.4c50.467,79.22,347.844,187.955,572.133,42.413"/>
		<path fill="#4AAFD8" d="M204.384,69.063c-0.45,5.752-2.101,7.441-3.961,7.296c-1.86-0.145-3.232-2.069-2.785-7.819
			c0.464-5.972,2.101-7.441,3.961-7.294C203.459,61.39,204.845,63.128,204.384,69.063z"/>
	</g>
</g>
<g id="Layer_2" display="none">
</g>
</svg>
